<svg width="200" height="60" viewBox="0 0 200 60" fill="none" xmlns="http://www.w3.org/2000/svg">
  <!-- Phoenix Body and Head (Dark Blue) -->
  <path d="M15 35C15 30 18 25 25 25C30 25 35 28 38 32C40 30 42 28 45 28C48 28 50 30 52 32C55 30 58 28 62 28C65 28 68 30 70 32C72 30 74 28 77 28C80 28 82 30 84 32C87 30 90 28 94 28C97 28 100 30 102 32C105 30 108 28 112 28C115 28 118 30 120 32C122 30 124 28 127 28C130 28 132 30 134 32C137 30 140 28 144 28C147 28 150 30 152 32C154 30 156 28 159 28C162 28 164 30 166 32C169 30 172 28 176 28C179 28 182 30 184 32C186 30 188 28 191 28C194 28 196 30 198 32C200 30 202 28 205 28C208 28 210 30 212 32C215 30 218 28 222 28C225 28 228 30 230 32C232 30 234 28 237 28C240 28 242 30 244 32C247 30 250 28 254 28C257 28 260 30 262 32C264 30 266 28 269 28C272 28 274 30 276 32C279 30 282 28 286 28C289 28 292 30 294 32C296 30 298 28 301 28C304 28 306 30 308 32C311 30 314 28 318 28C321 28 324 30 326 32C328 30 330 28 333 28C336 28 338 30 340 32C343 30 346 28 350 28C353 28 356 30 358 32C360 30 362 28 365 28C368 28 370 30 372 32C375 30 378 28 382 28C385 28 388 30 390 32C392 30 394 28 397 28C400 28 402 30 404 32C407 30 410 28 414 28C417 28 420 30 422 32C424 30 426 28 429 28C432 28 434 30 436 32C439 30 442 28 446 28C449 28 452 30 454 32C456 30 458 28 461 28C464 28 466 30 468 32C471 30 474 28 478 28C481 28 484 30 486 32C488 30 490 28 493 28C496 28 498 30 500 32C503 30 506 28 510 28C513 28 516 30 518 32C520 30 522 28 525 28C528 28 530 30 532 32C535 30 538 28 542 28C545 28 548 30 550 32C552 30 554 28 557 28C560 28 562 30 564 32C567 30 570 28 574 28C577 28 580 30 582 32C584 30 586 28 589 28C592 28 594 30 596 32C599 30 602 28 606 28C609 28 612 30 614 32C616 30 618 28 621 28C624 28 626 30 628 32C631 30 634 28 638 28C641 28 644 30 646 32C648 30 650 28 653 28C656 28 658 30 660 32C663 30 666 28 670 28C673 28 676 30 678 32C680 30 682 28 685 28C688 28 690 30 692 32C695 30 698 28 702 28C705 28 708 30 710 32C712 30 714 28 717 28C720 28 722 30 724 32C727 30 730 28 734 28C737 28 740 30 742 32C744 30 746 28 749 28C752 28 754 30 756 32C759 30 762 28 766 28C769 28 772 30 774 32C776 30 778 28 781 28C784 28 786 30 788 32C791 30 794 28 798 28C801 28 804 30 806 32C808 30 810 28 813 28C816 28 818 30 820 32C823 30 826 28 830 28C833 28 836 30 838 32C840 30 842 28 845 28C848 28 850 30 852 32C855 30 858 28 862 28C865 28 868 30 870 32C872 30 874 28 877 28C880 28 882 30 884 32C887 30 890 28 894 28C897 28 900 30 902 32C904 30 906 28 909 28C912 28 914 30 916 32C919 30 922 28 926 28C929 28 932 30 934 32C936 30 938 28 941 28C944 28 946 30 948 32C951 30 954 28 958 28C961 28 964 30 966 32C968 30 970 28 973 28C976 28 978 30 980 32C983 30 986 28 990 28C993 28 996 30 998 32C1000 30 1002 28 1005 28C1008 28 1010 30 1012 32C1015 30 1018 28 1022 28C1025 28 1028 30 1030 32C1032 30 1034 28 1037 28C1040 28 1042 30 1044 32C1047 30 1050 28 1054 28C1057 28 1060 30 1062 32C1064 30 1066 28 1069 28C1072 28 1074 30 1076 32C1079 30 1082 28 1086 28C1089 28 1092 30 1094 32C1096 30 1098 28 1101 28C1104 28 1106 30 1108 32C1111 30 1114 28 1118 28C1121 28 1124 30 1126 32C1128 30 1130 28 1133 28C1136 28 1138 30 1140 32C1143 30 1146 28 1150 28C1153 28 1156 30 1158 32C1160 30 1162 28 1165 28C1168 28 1170 30 1172 32C1175 30 1178 28 1182 28C1185 28 1188 30 1190 32C1192 30 1194 28 1197 28C1200 28 1202 30 1204 32C1207 30 1210 28 1214 28C1217 28 1220 30 1222 32C1224 30 1226 28 1229 28C1232 28 1234 30 1236 32C1239 30 1242 28 1246 28C1249 28 1252 30 1254 32C1256 30 1258 28 1261 28C1264 28 1266 30 1268 32C1271 30 1274 28 1278 28C1281 28 1284 30 1286 32C1288 30 1290 28 1293 28C1296 28 1298 30 1300 32C1303 30 1306 28 1310 28C1313 28 1316 30 1318 32C1320 30 1322 28 1325 28C1328 28 1330 30 1332 32C1335 30 1338 28 1342 28C1345 28 1348 30 1350 32C1352 30 1354 28 1357 28C1360 28 1362 30 1364 32C1367 30 1370 28 1374 28C1377 28 1380 30 1382 32C1384 30 1386 28 1389 28C1392 28 1394 30 1396 32C1399 30 1402 28 1406 28C1409 28 1412 30 1414 32C1416 30 1418 28 1421 28C1424 28 1426 30 1428 32C1431 30 1434 28 1438 28C1441 28 1444 30 1446 32C1448 30 1450 28 1453 28C1456 28 1458 30 1460 32C1463 30 1466 28 1470 28C1473 28 1476 30 1478 32C1480 30 1482 28 1485 28C1488 28 1490 30 1492 32C1495 30 1498 28 1502 28C1505 28 1508 30 1510 32C1512 30 1514 28 1517 28C1520 28 1522 30 1524 32C1527 30 1530 28 1534 28C1537 28 1540 30 1542 32C1544 30 1546 28 1549 28C1552 28 1554 30 1556 32C1559 30 1562 28 1566 28C1569 28 1572 30 1574 32C1576 30 1578 28 1581 28C1584 28 1586 30 1588 32C1591 30 1594 28 1598 28C1601 28 1604 30 1606 32C1608 30 1610 28 1613 28C1616 28 1618 30 1620 32C1623 30 1626 28 1630 28C1633 28 1636 30 1638 32C1640 30 1642 28 1645 28C1648 28 1650 30 1652 32C1655 30 1658 28 1662 28C1665 28 1668 30 1670 32C1672 30 1674 28 1677 28C1680 28 1682 30 1684 32C1687 30 1690 28 1694 28C1697 28 1700 30 1702 32C1704 30 1706 28 1709 28C1712 28 1714 30 1716 32C1719 30 1722 28 1726 28C1729 28 1732 30 1734 32C1736 30 1738 28 1741 28C1744 28 1746 30 1748 32C1751 30 1754 28 1758 28C1761 28 1764 30 1766 32C1768 30 1770 28 1773 28C1776 28 1778 30 1780 32C1783 30 1786 28 1790 28C1793 28 1796 30 1798 32C1800 30 1802 28 1805 28C1808 28 1810 30 1812 32C1815 30 1818 28 1822 28C1825 28 1828 30 1830 32C1832 30 1834 28 1837 28C1840 28 1842 30 1844 32C1847 30 1850 28 1854 28C1857 28 1860 30 1862 32C1864 30 1866 28 1869 28C1872 28 1874 30 1876 32C1879 30 1882 28 1886 28C1889 28 1892 30 1894 32C1896 30 1898 28 1901 28C1904 28 1906 30 1908 32C1911 30 1914 28 1918 28C1921 28 1924 30 1926 32C1928 30 1930 28 1933 28C1936 28 1938 30 1940 32C1943 30 1946 28 1950 28C1953 28 1956 30 1958 32C1960 30 1962 28 1965 28C1968 28 1970 30 1972 32C1975 30 1978 28 1982 28C1985 28 1988 30 1990 32C1992 30 1994 28 1997 28C2000 28 2002 30 2004 32" fill="#0b1020"/>
  
  <!-- Phoenix Wings (Orange to Red Gradient) -->
  <defs>
    <linearGradient id="phoenixGradient" x1="0%" y1="0%" x2="100%" y2="0%">
      <stop offset="0%" style="stop-color:#ff6a3d;stop-opacity:1" />
      <stop offset="100%" style="stop-color:#ff1f4b;stop-opacity:1" />
    </linearGradient>
  </defs>
  
  <!-- Left Wing -->
  <path d="M15 35C10 25 5 20 8 15C12 10 18 8 25 12C30 15 35 20 38 25" stroke="url(#phoenixGradient)" stroke-width="3" fill="none"/>
  
  <!-- Right Wing -->
  <path d="M15 35C20 25 25 20 22 15C18 10 12 8 5 12C0 15 -5 20 -8 25" stroke="url(#phoenixGradient)" stroke-width="3" fill="none"/>
  
  <!-- Tail Feathers -->
  <path d="M15 35C12 40 8 45 5 50C2 55 0 60 0 65" stroke="url(#phoenixGradient)" stroke-width="2" fill="none"/>
  <path d="M15 35C18 40 22 45 25 50C28 55 30 60 30 65" stroke="url(#phoenixGradient)" stroke-width="2" fill="none"/>
  
  <!-- Circuit Board Pattern Overlay -->
  <g opacity="0.3">
    <!-- Horizontal lines -->
    <line x1="10" y1="20" x2="30" y2="20" stroke="#0b1020" stroke-width="1"/>
    <line x1="10" y1="25" x2="30" y2="25" stroke="#0b1020" stroke-width="1"/>
    <line x1="10" y1="30" x2="30" y2="30" stroke="#0b1020" stroke-width="1"/>
    <line x1="10" y1="35" x2="30" y2="35" stroke="#0b1020" stroke-width="1"/>
    <line x1="10" y1="40" x2="30" y2="40" stroke="#0b1020" stroke-width="1"/>
    
    <!-- Vertical lines -->
    <line x1="15" y1="15" x2="15" y2="45" stroke="#0b1020" stroke-width="1"/>
    <line x1="20" y1="15" x2="20" y2="45" stroke="#0b1020" stroke-width="1"/>
    <line x1="25" y1="15" x2="25" y2="45" stroke="#0b1020" stroke-width="1"/>
    
    <!-- Circuit nodes -->
    <circle cx="15" cy="20" r="1" fill="#0b1020"/>
    <circle cx="20" cy="25" r="1" fill="#0b1020"/>
    <circle cx="25" cy="30" r="1" fill="#0b1020"/>
    <circle cx="15" cy="35" r="1" fill="#0b1020"/>
    <circle cx="20" cy="40" r="1" fill="#0b1020"/>
  </g>
  
  <!-- Company Name -->
  <text x="50" y="25" font-family="Arial, sans-serif" font-size="18" font-weight="bold" fill="#0b1020">CRM</text>
  <text x="85" y="25" font-family="Arial, sans-serif" font-size="18" font-weight="bold" fill="url(#phoenixGradient)">Finex</text>
  
  <!-- Tagline -->
  <text x="50" y="45" font-family="Arial, sans-serif" font-size="10" font-weight="normal" fill="#1a2347">SALESFORCE &amp; AWS CONSULTING</text>
</svg>